<?xml version="1.0" encoding="UTF-8"?>
<svg id="baseMap" xmlns="http://www.w3.org/2000/svg" baseProfile="tiny" version="1.2" viewBox="0 0 600 398">
  <text transform="translate(17 17.312)" fill="#181818" font-family="Roboto-Regular, Roboto" font-size="12" isolation="isolate"><tspan x="0" y="0">Manhattan</tspan></text>
  <text transform="translate(101.75 17.312)" fill="#181818" font-family="Roboto-Regular, Roboto" font-size="12" isolation="isolate"><tspan x="0" y="0">Brooklyn</tspan></text>
  <text transform="translate(175.156 17.312)" fill="#181818" font-family="Roboto-Regular, Roboto" font-size="12" isolation="isolate"><tspan x="0" y="0">Queens</tspan></text>
  <text transform="translate(242.547 17.312)" fill="#181818" font-family="Roboto-Regular, Roboto" font-size="12" isolation="isolate"><tspan x="0" y="0">Bronx</tspan></text>
  <text transform="translate(300.375 17.312)" fill="#181818" font-family="Roboto-Regular, Roboto" font-size="12" isolation="isolate"><tspan x="0" y="0">Staten</tspan></text>
  <text transform="translate(337.824 17.312)" fill="#181818" font-family="Roboto-Regular, Roboto" font-size="12" isolation="isolate"><tspan x="0" y="0">Island</tspan></text>
  <text transform="translate(390.094 17.5)" fill="#747474" font-family="Roboto-Bold, Roboto" font-size="12" font-weight="700" isolation="isolate"><tspan x="0" y="0">post_length</tspan></text>
  <rect x="463.234" y="7.875" width="9.266" height="9.266" fill="none" stroke-width="0"/>
  <path d="M471.513,12.514c0,2.01-1.629,3.64-3.639,3.64-2.01,0-3.64-1.629-3.64-3.639h0c0-2.011,1.629-3.64,3.639-3.641,2.01,0,3.64,1.629,3.64,3.639h0" fill="none" stroke="#b5b5b5"/>
  <text transform="translate(477.5 17.5)" fill="#545454" font-family="Roboto-Regular, Roboto" font-size="12" isolation="isolate"><tspan x="0" y="0">20</tspan></text>
  <rect x="500.984" y="4.234" width="16.547" height="16.547" fill="none" stroke-width="0"/>
  <path d="M516.542,12.513c0,4.02-3.258,7.279-7.278,7.28-4.02,0-7.279-3.258-7.28-7.278v-.002c0-4.02,3.258-7.279,7.278-7.28,4.02,0,7.279,3.258,7.28,7.278v.002" fill="none" stroke="#b5b5b5"/>
  <text transform="translate(522.531 17.5)" fill="#545454" font-family="Roboto-Regular, Roboto" font-size="12" isolation="isolate"><tspan x="0" y="0">80</tspan></text>
  <rect x="546.016" width="25.016" height="25.016" fill="none" stroke-width="0"/>
  <path d="M570.033,12.509c0,6.356-5.153,11.509-11.509,11.509s-11.509-5.153-11.509-11.509,5.153-11.509,11.509-11.509,11.509,5.153,11.509,11.509" fill="none" stroke="#b5b5b5"/>
  <text transform="translate(576.031 17.5)" fill="#545454" font-family="Roboto-Regular, Roboto" font-size="12" isolation="isolate"><tspan x="0" y="0">200</tspan></text>
  <rect y="35.016" width="600" height="329" fill="none" stroke-width="0"/>
  <line x1="13" y1="59.516" x2="600" y2="59.516" fill="none" stroke="#e7e7e7"/>
  <line x1="13" y1="100.349" x2="600" y2="100.349" fill="none" stroke="#e7e7e7"/>
  <line x1="13" y1="141.182" x2="600" y2="141.182" fill="none" stroke="#e7e7e7"/>
  <line x1="13" y1="182.016" x2="600" y2="182.016" fill="none" stroke="#e7e7e7"/>
  <line x1="13" y1="222.849" x2="600" y2="222.849" fill="none" stroke="#e7e7e7"/>
  <line x1="13" y1="263.682" x2="600" y2="263.682" fill="none" stroke="#e7e7e7"/>
  <line x1="13" y1="304.516" x2="600" y2="304.516" fill="none" stroke="#e7e7e7"/>
  <line x1="61.574" y1="329.016" x2="61.574" y2="35.016" fill="none" stroke="#e7e7e7"/>
  <line x1="123.234" y1="329.016" x2="123.234" y2="35.016" fill="none" stroke="#e7e7e7"/>
  <line x1="184.893" y1="329.016" x2="184.893" y2="35.016" fill="none" stroke="#e7e7e7"/>
  <line x1="246.553" y1="329.016" x2="246.553" y2="35.016" fill="none" stroke="#e7e7e7"/>
  <line x1="308.213" y1="329.016" x2="308.213" y2="35.016" fill="none" stroke="#e7e7e7"/>
  <line x1="369.872" y1="329.016" x2="369.872" y2="35.016" fill="none" stroke="#e7e7e7"/>
  <line x1="431.532" y1="329.016" x2="431.532" y2="35.016" fill="none" stroke="#e7e7e7"/>
  <line x1="493.192" y1="329.016" x2="493.192" y2="35.016" fill="none" stroke="#e7e7e7"/>
  <line x1="554.851" y1="329.016" x2="554.851" y2="35.016" fill="none" stroke="#e7e7e7"/>
  <path d="M494.467,182.016c0,3.921-3.177,7.099-7.098,7.1-3.921,0-7.099-3.177-7.1-7.098v-.002c0-3.921,3.177-7.099,7.098-7.1,3.921,0,7.099,3.177,7.1,7.098v.002" fill="#ffed4b" stroke-width="0"/>
  <path d="M183.086,263.682c0,3.921-3.177,7.099-7.098,7.1-3.921,0-7.099-3.177-7.1-7.098v-.002c0-3.921,3.177-7.099,7.098-7.1,3.921,0,7.099,3.177,7.1,7.098v.002" fill="#ffed4b" stroke-width="0"/>
  <path d="M439.392,304.516c0,3.773-3.059,6.832-6.832,6.832s-6.832-3.059-6.832-6.832,3.059-6.832,6.832-6.832,6.832,3.059,6.832,6.832" fill="#ffed4b" stroke-width="0"/>
  <path d="M370.754,304.516c0,3.514-2.848,6.362-6.361,6.363-3.514,0-6.362-2.848-6.363-6.361h0c0-3.515,2.848-6.364,6.361-6.364,3.514,0,6.362,2.848,6.363,6.361h0" fill="#ffed4b" stroke-width="0"/>
  <path d="M507.432,263.682c0,3.514-2.848,6.362-6.361,6.363-3.514,0-6.362-2.848-6.363-6.361h0c0-3.515,2.848-6.364,6.361-6.364,3.514,0,6.362,2.848,6.363,6.361h0" fill="#ffed4b" stroke-width="0"/>
  <path d="M364.489,304.516c0,3.459-2.803,6.263-6.262,6.264-3.459,0-6.263-2.803-6.264-6.262v-.002c0-3.459,2.803-6.263,6.262-6.264,3.459,0,6.263,2.803,6.264,6.262v.002" fill="#ffed4b" stroke-width="0"/>
  <path d="M196.83,304.516c0,3.376-2.737,6.113-6.113,6.113s-6.113-2.737-6.113-6.113,2.737-6.113,6.113-6.113,6.113,2.737,6.113,6.113" fill="#ffed4b" stroke-width="0"/>
  <path d="M408.683,100.349c0,3.083-2.499,5.583-5.582,5.584-3.083,0-5.583-2.499-5.584-5.582h0c0-3.085,2.499-5.584,5.582-5.585,3.083,0,5.583,2.499,5.584,5.582h0" fill="#ffed4b" stroke-width="0"/>
  <path d="M420.617,263.682c0,3.052-2.475,5.527-5.527,5.527s-5.527-2.475-5.527-5.527,2.475-5.527,5.527-5.527,5.527,2.475,5.527,5.527" fill="#ffed4b" stroke-width="0"/>
  <path d="M508.197,304.516c0,2.99-2.424,5.414-5.414,5.414s-5.414-2.424-5.414-5.414,2.424-5.414,5.414-5.414,5.414,2.424,5.414,5.414" fill="#ffed4b" stroke-width="0"/>
  <path d="M445.51,263.682c0,2.99-2.424,5.414-5.414,5.414s-5.414-2.424-5.414-5.414,2.424-5.414,5.414-5.414,5.414,2.424,5.414,5.414" fill="#ffed4b" stroke-width="0"/>
  <path d="M319.677,141.182c0,2.926-2.372,5.298-5.298,5.298s-5.298-2.372-5.298-5.298,2.372-5.298,5.298-5.298,5.298,2.372,5.298,5.298" fill="#ffed4b" stroke-width="0"/>
  <path d="M253.906,141.182c0,2.926-2.372,5.298-5.298,5.298s-5.298-2.372-5.298-5.298,2.372-5.298,5.298-5.298,5.298,2.372,5.298,5.298" fill="#ffed4b" stroke-width="0"/>
  <path d="M388.471,182.016c0,2.893-2.346,5.239-5.239,5.239s-5.239-2.346-5.239-5.239,2.346-5.239,5.239-5.239,5.239,2.346,5.239,5.239" fill="#ffed4b" stroke-width="0"/>
  <path d="M286.613,59.516c0,2.827-2.292,5.119-5.119,5.119s-5.119-2.292-5.119-5.119h0c0-2.828,2.292-5.12,5.119-5.12s5.119,2.292,5.119,5.119h0" fill="#ffed4b" stroke-width="0"/>
  <path d="M282.81,100.349c0,2.619-2.123,4.742-4.742,4.742s-4.742-2.123-4.742-4.742,2.123-4.742,4.742-4.742,4.742,2.123,4.742,4.742" fill="#ffed4b" stroke-width="0"/>
  <path d="M442.717,222.849c0,2.582-2.094,4.676-4.676,4.676s-4.676-2.094-4.676-4.676,2.094-4.676,4.676-4.676,4.676,2.094,4.676,4.676" fill="#ffed4b" stroke-width="0"/>
  <path d="M450.529,304.516c0,2.546-2.063,4.61-4.609,4.611s-4.61-2.063-4.611-4.609v-.002c0-2.546,2.063-4.61,4.609-4.611s4.61,2.063,4.611,4.609v.002" fill="#ffed4b" stroke-width="0"/>
  <path d="M531.92,141.182c0,2.47-2.003,4.473-4.473,4.473s-4.473-2.003-4.473-4.473,2.003-4.473,4.473-4.473,4.473,2.003,4.473,4.473" fill="#ffed4b" stroke-width="0"/>
  <path d="M389.005,141.182c0,2.432-1.971,4.403-4.403,4.403s-4.403-1.971-4.403-4.403,1.971-4.403,4.403-4.403,4.403,1.971,4.403,4.403" fill="#ffed4b" stroke-width="0"/>
  <path d="M93.653,263.682c0,2.392-1.94,4.332-4.332,4.332s-4.332-1.94-4.332-4.332,1.94-4.332,4.332-4.332,4.332,1.94,4.332,4.332" fill="#ffed4b" stroke-width="0"/>
  <path d="M325.074,263.682c0,2.312-1.874,4.187-4.186,4.188-2.312,0-4.187-1.874-4.188-4.186h0c0-2.314,1.874-4.189,4.186-4.189,2.312,0,4.187,1.874,4.188,4.186h0" fill="#ffed4b" stroke-width="0"/>
  <path d="M411.854,100.349c0,2.186-1.772,3.958-3.957,3.959-2.186,0-3.958-1.772-3.959-3.957h0c0-2.187,1.772-3.959,3.957-3.96,2.186,0,3.958,1.772,3.959,3.957h0" fill="#ffed4b" stroke-width="0"/>
  <path d="M559.277,182.016c0,4.525-3.669,8.194-8.194,8.194s-8.194-3.669-8.194-8.194,3.669-8.194,8.194-8.194,8.194,3.669,8.194,8.194" fill="#f4b54e" stroke-width="0"/>
  <path d="M324.648,100.349c0,3.969-3.216,7.187-7.185,7.187-3.969,0-7.187-3.216-7.187-7.185v-.002c0-3.969,3.216-7.187,7.185-7.187,3.969,0,7.187,3.216,7.187,7.185v.002" fill="#f4b54e" stroke-width="0"/>
  <path d="M273.388,222.849c0,3.848-3.119,6.967-6.967,6.967s-6.967-3.119-6.967-6.967h0c0-3.848,3.119-6.968,6.967-6.968s6.967,3.119,6.967,6.967h0" fill="#f4b54e" stroke-width="0"/>
  <path d="M440.586,100.349c0,3.487-2.825,6.314-6.312,6.314-3.487,0-6.314-2.825-6.314-6.312v-.003c0-3.487,2.825-6.314,6.312-6.314,3.487,0,6.314,2.825,6.314,6.312v.003" fill="#f4b54e" stroke-width="0"/>
  <path d="M134.685,304.516c0,3.487-2.825,6.314-6.312,6.314-3.487,0-6.314-2.825-6.314-6.312v-.003c0-3.487,2.825-6.314,6.312-6.314,3.487,0,6.314,2.825,6.314,6.312v.003" fill="#f4b54e" stroke-width="0"/>
  <path d="M343.049,222.849c0,3.348-2.714,6.062-6.062,6.062s-6.062-2.714-6.062-6.062,2.714-6.062,6.062-6.062,6.062,2.714,6.062,6.062" fill="#f4b54e" stroke-width="0"/>
  <path d="M240.575,141.182c0,3.32-2.691,6.011-6.011,6.011s-6.011-2.691-6.011-6.011,2.691-6.011,6.011-6.011,6.011,2.691,6.011,6.011" fill="#f4b54e" stroke-width="0"/>
  <path d="M550.586,263.682c0,3.32-2.691,6.011-6.011,6.011s-6.011-2.691-6.011-6.011,2.691-6.011,6.011-6.011,6.011,2.691,6.011,6.011" fill="#f4b54e" stroke-width="0"/>
  <path d="M549.788,182.016c0,2.69-2.181,4.871-4.871,4.871s-4.871-2.181-4.871-4.871,2.181-4.871,4.871-4.871,4.871,2.181,4.871,4.871" fill="#f4b54e" stroke-width="0"/>
  <path d="M228.687,182.016c0,2.619-2.123,4.742-4.742,4.742s-4.742-2.123-4.742-4.742,2.123-4.742,4.742-4.742,4.742,2.123,4.742,4.742" fill="#f4b54e" stroke-width="0"/>
  <path d="M434.284,222.849c0,4.925-3.991,8.919-8.916,8.92-4.925,0-8.919-3.991-8.92-8.916v-.004c0-4.925,3.991-8.919,8.916-8.92,4.925,0,8.919,3.991,8.92,8.916v.004" fill="#fe8478" stroke-width="0"/>
  <path d="M228.988,141.182c0,3.921-3.177,7.099-7.098,7.1-3.921,0-7.099-3.177-7.1-7.098v-.002c0-3.921,3.177-7.099,7.098-7.1,3.921,0,7.099,3.177,7.1,7.098v.002" fill="#fe8478" stroke-width="0"/>
  <path d="M216.698,222.849c0,3.376-2.737,6.113-6.113,6.113s-6.113-2.737-6.113-6.113,2.737-6.113,6.113-6.113,6.113,2.737,6.113,6.113" fill="#fe8478" stroke-width="0"/>
  <path d="M408.82,59.516c0,3.348-2.714,6.062-6.062,6.062s-6.062-2.714-6.062-6.062,2.714-6.062,6.062-6.062,6.062,2.714,6.062,6.062" fill="#fe8478" stroke-width="0"/>
  <path d="M219.703,222.849c0,3.144-2.548,5.693-5.692,5.694-3.144,0-5.693-2.548-5.694-5.692v-.002c0-3.144,2.548-5.693,5.692-5.694,3.144,0,5.693,2.548,5.694,5.692v.002" fill="#fe8478" stroke-width="0"/>
  <path d="M262.754,304.516c0,2.893-2.346,5.239-5.239,5.239s-5.239-2.346-5.239-5.239,2.346-5.239,5.239-5.239,5.239,2.346,5.239,5.239" fill="#fe8478" stroke-width="0"/>
  <path d="M105.463,59.516c0,2.861-2.319,5.18-5.18,5.18s-5.18-2.319-5.18-5.18,2.319-5.18,5.18-5.18,5.18,2.319,5.18,5.18" fill="#fe8478" stroke-width="0"/>
  <path d="M254.357,222.849c0,2.229-1.807,4.036-4.036,4.036s-4.036-1.807-4.036-4.036,1.807-4.036,4.036-4.036,4.036,1.807,4.036,4.036" fill="#fe8478" stroke-width="0"/>
  <path d="M92.352,59.516c0,3.944-3.197,7.142-7.141,7.143-3.944,0-7.142-3.197-7.143-7.141h0c0-3.946,3.197-7.144,7.141-7.144,3.944,0,7.142,3.197,7.143,7.141h0" fill="#00afb9" stroke-width="0"/>
  <path d="M89.644,304.516c0,3.773-3.059,6.832-6.832,6.832s-6.832-3.059-6.832-6.832,3.059-6.832,6.832-6.832,6.832,3.059,6.832,6.832" fill="#00afb9" stroke-width="0"/>
  <path d="M384.209,59.516c0,3.567-2.891,6.458-6.458,6.458s-6.458-2.891-6.458-6.458,2.891-6.458,6.458-6.458,6.458,2.891,6.458,6.458" fill="#00afb9" stroke-width="0"/>
  <path d="M149.403,100.349c0,3.291-2.668,5.959-5.959,5.959s-5.959-2.668-5.959-5.959,2.668-5.959,5.959-5.959,5.959,2.668,5.959,5.959" fill="#00afb9" stroke-width="0"/>
  <path d="M496.377,59.516c0,3.083-2.499,5.583-5.582,5.584-3.083,0-5.583-2.499-5.584-5.582h0c0-3.085,2.499-5.584,5.582-5.585,3.083,0,5.583,2.499,5.584,5.582h0" fill="#00afb9" stroke-width="0"/>
  <path d="M392.18,100.349c0,2.861-2.319,5.18-5.18,5.18s-5.18-2.319-5.18-5.18,2.319-5.18,5.18-5.18,5.18,2.319,5.18,5.18" fill="#00afb9" stroke-width="0"/>
  <path d="M454.746,59.516c0,2.794-2.265,5.059-5.059,5.059s-5.059-2.265-5.059-5.059,2.265-5.059,5.059-5.059,5.059,2.265,5.059,5.059" fill="#00afb9" stroke-width="0"/>
  <path d="M523.069,263.682c0,2.69-2.181,4.871-4.871,4.871s-4.871-2.181-4.871-4.871,2.181-4.871,4.871-4.871,4.871,2.181,4.871,4.871" fill="#00afb9" stroke-width="0"/>
  <path d="M479.093,100.349c0,2.619-2.123,4.742-4.742,4.742s-4.742-2.123-4.742-4.742,2.123-4.742,4.742-4.742,4.742,2.123,4.742,4.742" fill="#00afb9" stroke-width="0"/>
  <path d="M446.551,304.516c0,2.619-2.123,4.742-4.742,4.742s-4.742-2.123-4.742-4.742,2.123-4.742,4.742-4.742,4.742,2.123,4.742,4.742" fill="#00afb9" stroke-width="0"/>
  <path d="M431.07,59.516c0,2.582-2.094,4.676-4.676,4.676s-4.676-2.094-4.676-4.676,2.094-4.676,4.676-4.676,4.676,2.094,4.676,4.676" fill="#00afb9" stroke-width="0"/>
  <path d="M414.626,59.516c0,2.392-1.94,4.332-4.332,4.332s-4.332-1.94-4.332-4.332,1.94-4.332,4.332-4.332,4.332,1.94,4.332,4.332" fill="#00afb9" stroke-width="0"/>
  <path d="M414.672,222.849c0,2.229-1.807,4.036-4.036,4.036s-4.036-1.807-4.036-4.036,1.807-4.036,4.036-4.036,4.036,1.807,4.036,4.036" fill="#00afb9" stroke-width="0"/>
  <path d="M406.303,182.016c0,1.958-1.587,3.545-3.545,3.545s-3.545-1.587-3.545-3.545,1.587-3.545,3.545-3.545,3.545,1.587,3.545,3.545" fill="#00afb9" stroke-width="0"/>
  <path d="M302.383,59.516c0,1.699-1.378,3.077-3.077,3.077s-3.077-1.378-3.077-3.077,1.378-3.077,3.077-3.077,3.077,1.378,3.077,3.077" fill="#00afb9" stroke-width="0"/>
  <path d="M492.164,59.516" fill="#00afb9" stroke-width="0"/>
  <path d="M129.087,100.349c0,5.314-4.307,9.621-9.621,9.621s-9.621-4.307-9.621-9.621,4.307-9.621,9.621-9.621,9.621,4.307,9.621,9.621" fill="#00afb9" stroke-width="0"/>
  <path d="M122.665,100.349c0,3.848-3.119,6.967-6.967,6.967s-6.967-3.119-6.967-6.967h0c0-3.848,3.119-6.968,6.967-6.968s6.967,3.119,6.967,6.967h0" fill="#00afb9" stroke-width="0"/>
  <path d="M388.351,59.516c0,3.773-3.059,6.832-6.832,6.832s-6.832-3.059-6.832-6.832,3.059-6.832,6.832-6.832,6.832,3.059,6.832,6.832" fill="#00afb9" stroke-width="0"/>
  <path d="M70.027,141.182c0,3.722-3.017,6.74-6.74,6.74-3.722,0-6.74-3.017-6.74-6.74h0c0-3.723,3.017-6.741,6.74-6.741,3.722,0,6.74,3.017,6.74,6.74h0" fill="#00afb9" stroke-width="0"/>
  <path d="M514.319,263.682c0,3.722-3.017,6.74-6.74,6.74-3.722,0-6.74-3.017-6.74-6.74h0c0-3.723,3.017-6.741,6.74-6.741,3.722,0,6.74,3.017,6.74,6.74h0" fill="#00afb9" stroke-width="0"/>
  <path d="M517.699,59.516c0,3.697-2.997,6.694-6.694,6.694s-6.694-2.997-6.694-6.694,2.997-6.694,6.694-6.694,6.694,2.997,6.694,6.694" fill="#00afb9" stroke-width="0"/>
  <path d="M510.954,59.516c0,3.567-2.891,6.458-6.458,6.458s-6.458-2.891-6.458-6.458,2.891-6.458,6.458-6.458,6.458,2.891,6.458,6.458" fill="#00afb9" stroke-width="0"/>
  <path d="M334.833,263.682c0,3.54-2.87,6.41-6.41,6.41s-6.41-2.87-6.41-6.41,2.87-6.41,6.41-6.41,6.41,2.87,6.41,6.41" fill="#00afb9" stroke-width="0"/>
  <path d="M452.873,304.516c0,3.083-2.499,5.583-5.582,5.584-3.083,0-5.583-2.499-5.584-5.582h0c0-3.085,2.499-5.584,5.582-5.585,3.083,0,5.583,2.499,5.584,5.582h0" fill="#00afb9" stroke-width="0"/>
  <path d="M438.737,304.516c0,2.655-2.152,4.807-4.807,4.807s-4.807-2.152-4.807-4.807,2.152-4.807,4.807-4.807,4.807,2.152,4.807,4.807" fill="#00afb9" stroke-width="0"/>
  <path d="M383.937,182.016c0,2.47-2.003,4.473-4.473,4.473s-4.473-2.003-4.473-4.473,2.003-4.473,4.473-4.473,4.473,2.003,4.473,4.473" fill="#00afb9" stroke-width="0"/>
  <path d="M539.284,100.349c0,2.186-1.772,3.958-3.957,3.959-2.186,0-3.958-1.772-3.959-3.957h0c0-2.187,1.772-3.959,3.957-3.96,2.186,0,3.958,1.772,3.959,3.957h0" fill="#00afb9" stroke-width="0"/>
  <path d="M75.123,141.182c0,1.807-1.465,3.272-3.272,3.272s-3.272-1.465-3.272-3.272,1.465-3.272,3.272-3.272,3.272,1.465,3.272,3.272" fill="#00afb9" stroke-width="0"/>
  <path d="M447.29,100.349" fill="#00afb9" stroke-width="0"/>
  <path d="M509.033,100.349c0,4.398-3.564,7.963-7.962,7.964-4.398,0-7.963-3.564-7.964-7.962h0c0-4.399,3.564-7.965,7.962-7.965,4.398,0,7.963,3.564,7.964,7.962h0" fill="#00afb9" stroke-width="0"/>
  <path d="M266.124,263.682c0,4.376-3.548,7.924-7.924,7.924s-7.924-3.548-7.924-7.924,3.548-7.924,7.924-7.924,7.924,3.548,7.924,7.924" fill="#00afb9" stroke-width="0"/>
  <path d="M305.25,304.516c0,4.039-3.274,7.314-7.313,7.315-4.039,0-7.314-3.274-7.315-7.313h0c0-4.041,3.274-7.316,7.313-7.316,4.039,0,7.314,3.274,7.315,7.313h0" fill="#00afb9" stroke-width="0"/>
  <path d="M549.556,263.682c0,3.697-2.997,6.694-6.694,6.694s-6.694-2.997-6.694-6.694,2.997-6.694,6.694-6.694,6.694,2.997,6.694,6.694" fill="#00afb9" stroke-width="0"/>
  <path d="M481.295,263.682c0,3.646-2.954,6.602-6.6,6.602-3.646,0-6.602-2.954-6.602-6.6v-.002c0-3.646,2.954-6.602,6.6-6.602,3.646,0,6.602,2.954,6.602,6.6v.002" fill="#00afb9" stroke-width="0"/>
  <path d="M416.313,222.849c0,3.514-2.848,6.362-6.361,6.363-3.514,0-6.362-2.848-6.363-6.361h0c0-3.515,2.848-6.364,6.361-6.364,3.514,0,6.362,2.848,6.363,6.361h0" fill="#00afb9" stroke-width="0"/>
  <path d="M84.661,59.516c0,3.291-2.668,5.959-5.959,5.959s-5.959-2.668-5.959-5.959,2.668-5.959,5.959-5.959,5.959,2.668,5.959,5.959" fill="#00afb9" stroke-width="0"/>
  <path d="M407.241,222.849c0,3.233-2.62,5.854-5.853,5.855-3.233,0-5.854-2.62-5.855-5.853h0c0-3.235,2.62-5.856,5.853-5.856,3.233,0,5.854,2.62,5.855,5.853h0" fill="#00afb9" stroke-width="0"/>
  <path d="M551.456,222.849c0,3.233-2.62,5.854-5.853,5.855-3.233,0-5.854-2.62-5.855-5.853h0c0-3.235,2.62-5.856,5.853-5.856,3.233,0,5.854,2.62,5.855,5.853h0" fill="#00afb9" stroke-width="0"/>
  <path d="M356.49,182.016c0,3.204-2.596,5.802-5.8,5.802-3.204,0-5.802-2.596-5.802-5.8v-.002c0-3.204,2.596-5.802,5.8-5.802,3.204,0,5.802,2.596,5.802,5.8v.002" fill="#00afb9" stroke-width="0"/>
  <path d="M290.035,182.016c0,3.204-2.596,5.802-5.8,5.802-3.204,0-5.802-2.596-5.802-5.8v-.002c0-3.204,2.596-5.802,5.8-5.802,3.204,0,5.802,2.596,5.802,5.8v.002" fill="#00afb9" stroke-width="0"/>
  <path d="M70.756,263.682c0,2.99-2.424,5.414-5.414,5.414s-5.414-2.424-5.414-5.414,2.424-5.414,5.414-5.414,5.414,2.424,5.414,5.414" fill="#00afb9" stroke-width="0"/>
  <path d="M317.621,100.349c0,2.926-2.372,5.298-5.298,5.298s-5.298-2.372-5.298-5.298,2.372-5.298,5.298-5.298,5.298,2.372,5.298,5.298" fill="#00afb9" stroke-width="0"/>
  <path d="M477.192,222.849c0,2.893-2.346,5.239-5.239,5.239s-5.239-2.346-5.239-5.239,2.346-5.239,5.239-5.239,5.239,2.346,5.239,5.239" fill="#00afb9" stroke-width="0"/>
  <path d="M278.854,304.516c0,2.893-2.346,5.239-5.239,5.239s-5.239-2.346-5.239-5.239,2.346-5.239,5.239-5.239,5.239,2.346,5.239,5.239" fill="#00afb9" stroke-width="0"/>
  <path d="M382.81,182.016c0,2.794-2.265,5.059-5.059,5.059s-5.059-2.265-5.059-5.059,2.265-5.059,5.059-5.059,5.059,2.265,5.059,5.059" fill="#00afb9" stroke-width="0"/>
  <path d="M266.28,59.516c0,2.76-2.237,4.997-4.997,4.997s-4.997-2.237-4.997-4.997,2.237-4.997,4.997-4.997,4.997,2.237,4.997,4.997" fill="#00afb9" stroke-width="0"/>
  <path d="M440.514,100.349c0,2.69-2.181,4.871-4.871,4.871s-4.871-2.181-4.871-4.871,2.181-4.871,4.871-4.871,4.871,2.181,4.871,4.871" fill="#00afb9" stroke-width="0"/>
  <path d="M434.284,263.682c0,2.655-2.152,4.807-4.807,4.807s-4.807-2.152-4.807-4.807,2.152-4.807,4.807-4.807,4.807,2.152,4.807,4.807" fill="#00afb9" stroke-width="0"/>
  <path d="M236.776,222.849c0,2.546-2.063,4.61-4.609,4.611s-4.61-2.063-4.611-4.609v-.002c0-2.546,2.063-4.61,4.609-4.611s4.61,2.063,4.611,4.609v.002" fill="#00afb9" stroke-width="0"/>
  <path d="M197.032,304.516c0,2.353-1.907,4.26-4.26,4.26-2.353,0-4.26-1.907-4.26-4.26h0c0-2.353,1.907-4.261,4.26-4.261,2.353,0,4.26,1.907,4.26,4.26h0" fill="#00afb9" stroke-width="0"/>
  <path d="M530.298,222.849c0,2.142-1.737,3.879-3.879,3.879s-3.879-1.737-3.879-3.879,1.737-3.879,3.879-3.879,3.879,1.737,3.879,3.879" fill="#00afb9" stroke-width="0"/>
  <path d="M270.255,100.349c0,5.523-4.477,10-10,10s-10-4.477-10-10,4.477-10,10-10,10,4.477,10,10" fill="#0081a7" stroke-width="0"/>
  <path d="M308.559,141.182c0,5.489-4.448,9.938-9.937,9.939-5.489,0-9.938-4.448-9.939-9.937v-.002c0-5.489,4.448-9.938,9.937-9.939,5.489,0,9.938,4.448,9.939,9.937v.002" fill="#0081a7" stroke-width="0"/>
  <path d="M70.801,304.516c0,4.906-3.977,8.884-8.883,8.885-4.906,0-8.884-3.977-8.885-8.883h0c0-4.908,3.977-8.885,8.883-8.886,4.906,0,8.884,3.977,8.885,8.883h0" fill="#0081a7" stroke-width="0"/>
  <path d="M436.27,222.849c0,4.887-3.961,8.85-8.848,8.85-4.887,0-8.85-3.961-8.85-8.848v-.002c0-4.887,3.961-8.85,8.848-8.85,4.887,0,8.85,3.961,8.85,8.848v.002" fill="#0081a7" stroke-width="0"/>
  <path d="M243.578,59.516c0,4.789-3.883,8.672-8.672,8.672s-8.672-3.883-8.672-8.672,3.883-8.672,8.672-8.672,8.672,3.883,8.672,8.672" fill="#0081a7" stroke-width="0"/>
  <path d="M378.544,263.682c0,4.789-3.883,8.672-8.672,8.672s-8.672-3.883-8.672-8.672,3.883-8.672,8.672-8.672,8.672,3.883,8.672,8.672" fill="#0081a7" stroke-width="0"/>
  <path d="M463.01,182.016c.001,4.709-3.816,8.528-8.525,8.529-4.709.001-8.528-3.816-8.529-8.525v-.004c-.001-4.709,3.816-8.528,8.525-8.529,4.709-.001,8.528,3.816,8.529,8.525v.004" fill="#0081a7" stroke-width="0"/>
  <path d="M540.587,59.516c.001,4.608-3.734,8.345-8.342,8.346-4.608.001-8.345-3.734-8.346-8.342v-.004c-.001-4.608,3.734-8.345,8.342-8.346,4.608-.001,8.345,3.734,8.346,8.342v.004" fill="#0081a7" stroke-width="0"/>
  <path d="M370.642,59.516c0,4.587-3.719,8.306-8.306,8.306s-8.306-3.719-8.306-8.306,3.719-8.306,8.306-8.306,8.306,3.719,8.306,8.306" fill="#0081a7" stroke-width="0"/>
  <path d="M401.814,182.016c0,4.398-3.564,7.963-7.962,7.964-4.398,0-7.963-3.564-7.964-7.962h0c0-4.399,3.564-7.965,7.962-7.965,4.398,0,7.963,3.564,7.964,7.962h0" fill="#0081a7" stroke-width="0"/>
  <path d="M107.825,141.182c0,4.355-3.529,7.885-7.884,7.886-4.355,0-7.885-3.529-7.886-7.884v-.002c0-4.355,3.529-7.885,7.884-7.886,4.355,0,7.885,3.529,7.886,7.884v.002" fill="#0081a7" stroke-width="0"/>
  <path d="M158.969,222.849c0,4.223-3.422,7.646-7.645,7.647-4.223,0-7.646-3.422-7.647-7.645h0c0-4.224,3.422-7.648,7.645-7.648,4.223,0,7.646,3.422,7.647,7.645h0" fill="#0081a7" stroke-width="0"/>
  <path d="M551.454,100.349c0,4.177-3.387,7.564-7.564,7.564s-7.564-3.387-7.564-7.564,3.387-7.564,7.564-7.564,7.564,3.387,7.564,7.564" fill="#0081a7" stroke-width="0"/>
  <path d="M358.253,222.849c0,4.177-3.387,7.564-7.564,7.564s-7.564-3.387-7.564-7.564,3.387-7.564,7.564-7.564,7.564,3.387,7.564,7.564" fill="#0081a7" stroke-width="0"/>
  <path d="M311.242,263.682c0,4.132-3.349,7.483-7.481,7.483-4.132,0-7.483-3.349-7.483-7.481v-.003c0-4.132,3.349-7.483,7.481-7.483,4.132,0,7.483,3.349,7.483,7.481v.003" fill="#0081a7" stroke-width="0"/>
  <path d="M294.757,304.516c0,4.109-3.331,7.44-7.44,7.44s-7.44-3.331-7.44-7.44,3.331-7.44,7.44-7.44,7.44,3.331,7.44,7.44" fill="#0081a7" stroke-width="0"/>
  <path d="M314.583,304.516c0,4.086-3.312,7.398-7.398,7.398s-7.398-3.312-7.398-7.398,3.312-7.398,7.398-7.398,7.398,3.312,7.398,7.398" fill="#0081a7" stroke-width="0"/>
  <path d="M278.958,304.516c0,4.086-3.312,7.398-7.398,7.398s-7.398-3.312-7.398-7.398,3.312-7.398,7.398-7.398,7.398,3.312,7.398,7.398" fill="#0081a7" stroke-width="0"/>
  <path d="M496.095,141.182c0,4.063-3.292,7.357-7.355,7.357-4.063,0-7.357-3.292-7.357-7.355v-.003c0-4.063,3.292-7.357,7.355-7.357,4.063,0,7.357,3.292,7.357,7.355v.003" fill="#0081a7" stroke-width="0"/>
  <path d="M416.622,263.682c0,4.063-3.292,7.357-7.355,7.357-4.063,0-7.357-3.292-7.357-7.355v-.003c0-4.063,3.292-7.357,7.355-7.357,4.063,0,7.357,3.292,7.357,7.355v.003" fill="#0081a7" stroke-width="0"/>
  <path d="M291.12,141.182c0,3.992-3.237,7.229-7.229,7.229s-7.229-3.237-7.229-7.229,3.237-7.229,7.229-7.229,7.229,3.237,7.229,7.229" fill="#0081a7" stroke-width="0"/>
  <path d="M499.008,182.016c0,3.969-3.216,7.187-7.185,7.187-3.969,0-7.187-3.216-7.187-7.185v-.002c0-3.969,3.216-7.187,7.185-7.187,3.969,0,7.187,3.216,7.187,7.185v.002" fill="#0081a7" stroke-width="0"/>
  <path d="M229.287,141.182c0,3.896-3.159,7.055-7.055,7.055s-7.055-3.159-7.055-7.055,3.159-7.055,7.055-7.055,7.055,3.159,7.055,7.055" fill="#0081a7" stroke-width="0"/>
  <path d="M480.677,182.016c0,3.872-3.139,7.011-7.011,7.011s-7.011-3.139-7.011-7.011,3.139-7.011,7.011-7.011,7.011,3.139,7.011,7.011" fill="#0081a7" stroke-width="0"/>
  <path d="M389.469,59.516c0,3.823-3.099,6.922-6.922,6.922s-6.922-3.099-6.922-6.922,3.099-6.922,6.922-6.922,6.922,3.099,6.922,6.922" fill="#0081a7" stroke-width="0"/>
  <path d="M437.381,222.849c0,3.798-3.079,6.877-6.877,6.877s-6.877-3.079-6.877-6.877,3.079-6.877,6.877-6.877,6.877,3.079,6.877,6.877" fill="#0081a7" stroke-width="0"/>
  <path d="M463.325,222.849c0,3.748-3.038,6.786-6.785,6.787-3.748,0-6.786-3.038-6.787-6.785h0c0-3.749,3.038-6.787,6.785-6.788,3.748,0,6.786,3.038,6.787,6.785h0" fill="#0081a7" stroke-width="0"/>
  <path d="M373.872,141.182c0,3.722-3.017,6.74-6.74,6.74-3.722,0-6.74-3.017-6.74-6.74h0c0-3.723,3.017-6.741,6.74-6.741,3.722,0,6.74,3.017,6.74,6.74h0" fill="#0081a7" stroke-width="0"/>
  <path d="M550.241,263.682c0,3.697-2.997,6.694-6.694,6.694s-6.694-2.997-6.694-6.694,2.997-6.694,6.694-6.694,6.694,2.997,6.694,6.694" fill="#0081a7" stroke-width="0"/>
  <path d="M432.357,100.349c0,3.672-2.976,6.648-6.648,6.648s-6.648-2.976-6.648-6.648,2.976-6.648,6.648-6.648,6.648,2.976,6.648,6.648" fill="#0081a7" stroke-width="0"/>
  <path d="M535.808,222.849c0,3.672-2.976,6.648-6.648,6.648s-6.648-2.976-6.648-6.648,2.976-6.648,6.648-6.648,6.648,2.976,6.648,6.648" fill="#0081a7" stroke-width="0"/>
  <path d="M411.756,59.516c0,3.646-2.954,6.602-6.6,6.602-3.646,0-6.602-2.954-6.602-6.6v-.002c0-3.646,2.954-6.602,6.6-6.602,3.646,0,6.602,2.954,6.602,6.6v.002" fill="#0081a7" stroke-width="0"/>
  <path d="M454.186,100.349c0,3.62-2.934,6.554-6.554,6.554s-6.554-2.934-6.554-6.554,2.934-6.554,6.554-6.554,6.554,2.934,6.554,6.554" fill="#0081a7" stroke-width="0"/>
  <path d="M502.486,263.682c0,3.62-2.934,6.554-6.554,6.554s-6.554-2.934-6.554-6.554,2.934-6.554,6.554-6.554,6.554,2.934,6.554,6.554" fill="#0081a7" stroke-width="0"/>
  <path d="M550.101,59.516c0,3.62-2.934,6.554-6.554,6.554s-6.554-2.934-6.554-6.554,2.934-6.554,6.554-6.554,6.554,2.934,6.554,6.554" fill="#0081a7" stroke-width="0"/>
  <path d="M506.501,263.682c0,3.567-2.891,6.458-6.458,6.458s-6.458-2.891-6.458-6.458,2.891-6.458,6.458-6.458,6.458,2.891,6.458,6.458" fill="#0081a7" stroke-width="0"/>
  <path d="M381.421,59.516c0,3.54-2.87,6.41-6.41,6.41s-6.41-2.87-6.41-6.41,2.87-6.41,6.41-6.41,6.41,2.87,6.41,6.41" fill="#0081a7" stroke-width="0"/>
  <path d="M491.38,182.016c0,3.54-2.87,6.41-6.41,6.41s-6.41-2.87-6.41-6.41,2.87-6.41,6.41-6.41,6.41,2.87,6.41,6.41" fill="#0081a7" stroke-width="0"/>
  <path d="M461.873,59.516c0,3.514-2.848,6.362-6.361,6.363-3.514,0-6.362-2.848-6.363-6.361h0c0-3.515,2.848-6.364,6.361-6.364,3.514,0,6.362,2.848,6.363,6.361h0" fill="#0081a7" stroke-width="0"/>
  <path d="M384.357,141.182c0,3.459-2.803,6.263-6.262,6.264-3.459,0-6.263-2.803-6.264-6.262v-.002c0-3.459,2.803-6.263,6.262-6.264,3.459,0,6.263,2.803,6.264,6.262v.002" fill="#0081a7" stroke-width="0"/>
  <path d="M474.983,222.849c0,3.376-2.737,6.113-6.113,6.113s-6.113-2.737-6.113-6.113,2.737-6.113,6.113-6.113,6.113,2.737,6.113,6.113" fill="#0081a7" stroke-width="0"/>
  <path d="M83.343,141.182c0,3.32-2.691,6.011-6.011,6.011s-6.011-2.691-6.011-6.011,2.691-6.011,6.011-6.011,6.011,2.691,6.011,6.011" fill="#0081a7" stroke-width="0"/>
  <path d="M256.28,141.182c0,3.291-2.668,5.959-5.959,5.959s-5.959-2.668-5.959-5.959,2.668-5.959,5.959-5.959,5.959,2.668,5.959,5.959" fill="#0081a7" stroke-width="0"/>
  <path d="M465.818,222.849c0,3.233-2.62,5.854-5.853,5.855-3.233,0-5.854-2.62-5.855-5.853h0c0-3.235,2.62-5.856,5.853-5.856,3.233,0,5.854,2.62,5.855,5.853h0" fill="#0081a7" stroke-width="0"/>
  <path d="M282.552,100.349c0,3.233-2.62,5.854-5.853,5.855-3.233,0-5.854-2.62-5.855-5.853h0c0-3.235,2.62-5.856,5.853-5.856,3.233,0,5.854,2.62,5.855,5.853h0" fill="#0081a7" stroke-width="0"/>
  <path d="M75.542,59.516c0,3.174-2.573,5.747-5.747,5.747s-5.747-2.573-5.747-5.747,2.573-5.747,5.747-5.747,5.747,2.573,5.747,5.747" fill="#0081a7" stroke-width="0"/>
  <path d="M313.96,100.349c0,3.174-2.573,5.747-5.747,5.747s-5.747-2.573-5.747-5.747,2.573-5.747,5.747-5.747,5.747,2.573,5.747,5.747" fill="#0081a7" stroke-width="0"/>
  <path d="M239.968,141.182c0,3.174-2.573,5.747-5.747,5.747s-5.747-2.573-5.747-5.747,2.573-5.747,5.747-5.747,5.747,2.573,5.747,5.747" fill="#0081a7" stroke-width="0"/>
  <path d="M224.211,222.849c0,3.174-2.573,5.747-5.747,5.747s-5.747-2.573-5.747-5.747,2.573-5.747,5.747-5.747,5.747,2.573,5.747,5.747" fill="#0081a7" stroke-width="0"/>
  <path d="M532.455,222.849c0,3.144-2.548,5.693-5.692,5.694-3.144,0-5.693-2.548-5.694-5.692v-.002c0-3.144,2.548-5.693,5.692-5.694,3.144,0,5.693,2.548,5.694,5.692v.002" fill="#0081a7" stroke-width="0"/>
  <path d="M372.085,263.682c0,3.114-2.524,5.638-5.637,5.639-3.114,0-5.638-2.524-5.639-5.637h0c0-3.115,2.524-5.64,5.637-5.64,3.114,0,5.638,2.524,5.639,5.637h0" fill="#0081a7" stroke-width="0"/>
  <path d="M452.585,304.516c0,3.114-2.524,5.638-5.637,5.639-3.114,0-5.638-2.524-5.639-5.637h0c0-3.115,2.524-5.64,5.637-5.64,3.114,0,5.638,2.524,5.639,5.637h0" fill="#0081a7" stroke-width="0"/>
  <path d="M555.754,59.516c0,2.958-2.398,5.356-5.356,5.356s-5.356-2.398-5.356-5.356,2.398-5.356,5.356-5.356,5.356,2.398,5.356,5.356" fill="#0081a7" stroke-width="0"/>
  <path d="M304.947,100.349c0,2.926-2.372,5.298-5.298,5.298s-5.298-2.372-5.298-5.298,2.372-5.298,5.298-5.298,5.298,2.372,5.298,5.298" fill="#0081a7" stroke-width="0"/>
  <path d="M263.155,222.849c0,2.926-2.372,5.298-5.298,5.298s-5.298-2.372-5.298-5.298,2.372-5.298,5.298-5.298,5.298,2.372,5.298,5.298" fill="#0081a7" stroke-width="0"/>
  <path d="M247.398,263.682c0,2.926-2.372,5.298-5.298,5.298s-5.298-2.372-5.298-5.298,2.372-5.298,5.298-5.298,5.298,2.372,5.298,5.298" fill="#0081a7" stroke-width="0"/>
  <path d="M537.198,304.516c0,2.926-2.372,5.298-5.298,5.298s-5.298-2.372-5.298-5.298,2.372-5.298,5.298-5.298,5.298,2.372,5.298,5.298" fill="#0081a7" stroke-width="0"/>
  <path d="M490.209,304.516c0,2.893-2.346,5.239-5.239,5.239s-5.239-2.346-5.239-5.239,2.346-5.239,5.239-5.239,5.239,2.346,5.239,5.239" fill="#0081a7" stroke-width="0"/>
  <path d="M82.571,263.682c0,2.893-2.346,5.239-5.239,5.239s-5.239-2.346-5.239-5.239,2.346-5.239,5.239-5.239,5.239,2.346,5.239,5.239" fill="#0081a7" stroke-width="0"/>
  <path d="M309.625,222.849c0,2.861-2.319,5.18-5.18,5.18s-5.18-2.319-5.18-5.18,2.319-5.18,5.18-5.18,5.18,2.319,5.18,5.18" fill="#0081a7" stroke-width="0"/>
  <path d="M428.833,100.349c0,2.861-2.319,5.18-5.18,5.18s-5.18-2.319-5.18-5.18,2.319-5.18,5.18-5.18,5.18,2.319,5.18,5.18" fill="#0081a7" stroke-width="0"/>
  <path d="M463.028,222.849c0,2.827-2.292,5.119-5.119,5.119s-5.119-2.292-5.119-5.119h0c0-2.828,2.292-5.12,5.119-5.12s5.119,2.292,5.119,5.119h0" fill="#0081a7" stroke-width="0"/>
  <path d="M102.601,100.349c0,2.794-2.265,5.059-5.059,5.059s-5.059-2.265-5.059-5.059,2.265-5.059,5.059-5.059,5.059,2.265,5.059,5.059" fill="#0081a7" stroke-width="0"/>
  <path d="M221.81,304.516c0,2.794-2.265,5.059-5.059,5.059s-5.059-2.265-5.059-5.059,2.265-5.059,5.059-5.059,5.059,2.265,5.059,5.059" fill="#0081a7" stroke-width="0"/>
  <path d="M266.965,222.849c0,2.76-2.237,4.997-4.997,4.997s-4.997-2.237-4.997-4.997,2.237-4.997,4.997-4.997,4.997,2.237,4.997,4.997" fill="#0081a7" stroke-width="0"/>
  <path d="M346.374,263.682c0,2.725-2.208,4.934-4.933,4.935-2.725,0-4.934-2.208-4.935-4.933h0c0-2.726,2.208-4.936,4.933-4.936,2.725,0,4.934,2.208,4.935,4.933h0" fill="#0081a7" stroke-width="0"/>
  <path d="M305.89,304.516c0,2.69-2.181,4.871-4.871,4.871s-4.871-2.181-4.871-4.871,2.181-4.871,4.871-4.871,4.871,2.181,4.871,4.871" fill="#0081a7" stroke-width="0"/>
  <path d="M397.288,222.849c0,2.655-2.152,4.807-4.807,4.807s-4.807-2.152-4.807-4.807,2.152-4.807,4.807-4.807,4.807,2.152,4.807,4.807" fill="#0081a7" stroke-width="0"/>
  <path d="M111.191,182.016c0,2.619-2.123,4.742-4.742,4.742s-4.742-2.123-4.742-4.742,2.123-4.742,4.742-4.742,4.742,2.123,4.742,4.742" fill="#0081a7" stroke-width="0"/>
  <path d="M276.578,222.849c0,2.582-2.094,4.676-4.676,4.676s-4.676-2.094-4.676-4.676,2.094-4.676,4.676-4.676,4.676,2.094,4.676,4.676" fill="#0081a7" stroke-width="0"/>
  <path d="M512.717,263.682" fill="#0081a7" stroke-width="0"/>
  <path d="M348.106,263.682c0,2.546-2.063,4.61-4.609,4.611s-4.61-2.063-4.611-4.609v-.002c0-2.546,2.063-4.61,4.609-4.611s4.61,2.063,4.611,4.609v.002" fill="#0081a7" stroke-width="0"/>
  <path d="M430.593,182.016c0,2.508-2.033,4.542-4.541,4.543s-4.542-2.033-4.543-4.541h0c0-2.51,2.033-4.543,4.541-4.544s4.542,2.033,4.543,4.541h0" fill="#0081a7" stroke-width="0"/>
  <path d="M485.402,222.849c0,2.508-2.033,4.542-4.541,4.543s-4.542-2.033-4.543-4.541h0c0-2.51,2.033-4.543,4.541-4.544s4.542,2.033,4.543,4.541h0" fill="#0081a7" stroke-width="0"/>
  <path d="M536.031,100.349c0,2.47-2.003,4.473-4.473,4.473s-4.473-2.003-4.473-4.473,2.003-4.473,4.473-4.473,4.473,2.003,4.473,4.473" fill="#0081a7" stroke-width="0"/>
  <path d="M362.699,263.682c0,2.47-2.003,4.473-4.473,4.473s-4.473-2.003-4.473-4.473,2.003-4.473,4.473-4.473,4.473,2.003,4.473,4.473" fill="#0081a7" stroke-width="0"/>
  <path d="M468.749,59.516c0,2.392-1.94,4.332-4.332,4.332s-4.332-1.94-4.332-4.332,1.94-4.332,4.332-4.332,4.332,1.94,4.332,4.332" fill="#0081a7" stroke-width="0"/>
  <path d="M266.985,100.349c0,2.392-1.94,4.332-4.332,4.332s-4.332-1.94-4.332-4.332,1.94-4.332,4.332-4.332,4.332,1.94,4.332,4.332" fill="#0081a7" stroke-width="0"/>
  <path d="M408.73,263.682c0,2.353-1.907,4.26-4.26,4.26-2.353,0-4.26-1.907-4.26-4.26h0c0-2.353,1.907-4.261,4.26-4.261,2.353,0,4.26,1.907,4.26,4.26h0" fill="#0081a7" stroke-width="0"/>
  <path d="M501.489,182.016c0,2.312-1.874,4.187-4.186,4.188-2.312,0-4.187-1.874-4.188-4.186h0c0-2.314,1.874-4.189,4.186-4.189,2.312,0,4.187,1.874,4.188,4.186h0" fill="#0081a7" stroke-width="0"/>
  <path d="M548.762,141.182c0,2.312-1.874,4.187-4.186,4.188-2.312,0-4.187-1.874-4.188-4.186h0c0-2.314,1.874-4.189,4.186-4.189,2.312,0,4.187,1.874,4.188,4.186h0" fill="#0081a7" stroke-width="0"/>
  <path d="M74.517,100.349c0,2.229-1.807,4.036-4.036,4.036s-4.036-1.807-4.036-4.036,1.807-4.036,4.036-4.036,4.036,1.807,4.036,4.036" fill="#0081a7" stroke-width="0"/>
  <path d="M545.792,141.182c0,2.186-1.772,3.958-3.957,3.959-2.186,0-3.958-1.772-3.959-3.957h0c0-2.187,1.772-3.959,3.957-3.96,2.186,0,3.958,1.772,3.959,3.957h0" fill="#0081a7" stroke-width="0"/>
  <path d="M311.143,141.182c0,2.186-1.772,3.958-3.957,3.959-2.186,0-3.958-1.772-3.959-3.957h0c0-2.187,1.772-3.959,3.957-3.96,2.186,0,3.958,1.772,3.959,3.957h0" fill="#0081a7" stroke-width="0"/>
  <path d="M496.728,182.016c0,2.142-1.737,3.879-3.879,3.879s-3.879-1.737-3.879-3.879,1.737-3.879,3.879-3.879,3.879,1.737,3.879,3.879" fill="#0081a7" stroke-width="0"/>
  <path d="M291.033,304.516c0,2.052-1.663,3.716-3.716,3.716-2.052,0-3.716-1.663-3.716-3.716h0c0-2.053,1.663-3.717,3.716-3.717,2.052,0,3.716,1.663,3.716,3.716h0" fill="#0081a7" stroke-width="0"/>
  <path d="M377.699,182.016c0,2.052-1.663,3.716-3.716,3.716-2.052,0-3.716-1.663-3.716-3.716h0c0-2.053,1.663-3.717,3.716-3.717,2.052,0,3.716,1.663,3.716,3.716h0" fill="#0081a7" stroke-width="0"/>
  <path d="M438.414,263.682c0,1.909-1.547,3.456-3.456,3.456s-3.456-1.547-3.456-3.456,1.547-3.456,3.456-3.456,3.456,1.547,3.456,3.456" fill="#0081a7" stroke-width="0"/>
  <path d="M102.278,100.349c0,1.859-1.507,3.366-3.366,3.366s-3.366-1.507-3.366-3.366,1.507-3.366,3.366-3.366,3.366,1.507,3.366,3.366" fill="#0081a7" stroke-width="0"/>
  <rect y="35.016" width="600" height="329" fill="none" stroke-width="0"/>
  <text transform="translate(1.262 308.516)" fill="#747474" font-family="Roboto-Regular, Roboto" font-size="12" isolation="isolate"><tspan x="0" y="0">0</tspan></text>
  <text transform="translate(1.262 267.682)" fill="#747474" font-family="Roboto-Regular, Roboto" font-size="12" isolation="isolate"><tspan x="0" y="0">1</tspan></text>
  <text transform="translate(1.262 226.849)" fill="#747474" font-family="Roboto-Regular, Roboto" font-size="12" isolation="isolate"><tspan x="0" y="0">2</tspan></text>
  <text transform="translate(1.262 186.016)" fill="#747474" font-family="Roboto-Regular, Roboto" font-size="12" isolation="isolate"><tspan x="0" y="0">3</tspan></text>
  <text transform="translate(1.262 145.182)" fill="#747474" font-family="Roboto-Regular, Roboto" font-size="12" isolation="isolate"><tspan x="0" y="0">4</tspan></text>
  <text transform="translate(1.262 104.349)" fill="#747474" font-family="Roboto-Regular, Roboto" font-size="12" isolation="isolate"><tspan x="0" y="0">5</tspan></text>
  <text transform="translate(1.262 63.516)" fill="#747474" font-family="Roboto-Regular, Roboto" font-size="12" isolation="isolate"><tspan x="0" y="0">6</tspan></text>
  <line x1="600" y1="329.016" x2="13" y2="329.016" fill="none" stroke="#181818" stroke-linecap="square"/>
  <text transform="translate(44.828 346.016)" fill="#747474" font-family="Roboto-Regular, Roboto" font-size="12" isolation="isolate"><tspan x="0" y="0">12 am</tspan></text>
  <text transform="translate(46.835 361.016)" fill="#747474" font-family="Roboto-Regular, Roboto" font-size="12" isolation="isolate"><tspan x="0" y="0">Jan 1</tspan></text>
  <text transform="translate(109.857 346.016)" fill="#747474" font-family="Roboto-Regular, Roboto" font-size="12" isolation="isolate"><tspan x="0" y="0">3 am</tspan></text>
  <text transform="translate(171.516 346.016)" fill="#747474" font-family="Roboto-Regular, Roboto" font-size="12" isolation="isolate"><tspan x="0" y="0">6 am</tspan></text>
  <text transform="translate(233.176 346.016)" fill="#747474" font-family="Roboto-Regular, Roboto" font-size="12" isolation="isolate"><tspan x="0" y="0">9 am</tspan></text>
  <text transform="translate(291.364 346.016)" fill="#747474" font-family="Roboto-Regular, Roboto" font-size="12" isolation="isolate"><tspan x="0" y="0">12 pm</tspan></text>
  <text transform="translate(356.393 346.016)" fill="#747474" font-family="Roboto-Regular, Roboto" font-size="12" isolation="isolate"><tspan x="0" y="0">3 pm</tspan></text>
  <text transform="translate(418.053 346.016)" fill="#747474" font-family="Roboto-Regular, Roboto" font-size="12" isolation="isolate"><tspan x="0" y="0">6 pm</tspan></text>
  <text transform="translate(479.712 346.016)" fill="#747474" font-family="Roboto-Regular, Roboto" font-size="12" isolation="isolate"><tspan x="0" y="0">9 pm</tspan></text>
  <text transform="translate(538.105 346.016)" fill="#747474" font-family="Roboto-Regular, Roboto" font-size="12" isolation="isolate"><tspan x="0" y="0">12 am</tspan></text>
  <text transform="translate(540.112 361.016)" fill="#747474" font-family="Roboto-Regular, Roboto" font-size="12" isolation="isolate"><tspan x="0" y="0">Jan 2</tspan></text>
  <line x1="13" y1="329.016" x2="13" y2="35.016" fill="none" stroke="#181818" stroke-linecap="square"/>
  <text transform="translate(572.52 321.516)" fill="#000" font-family="Roboto-Bold, Roboto" font-size="12" font-weight="700" isolation="isolate"><tspan x="0" y="0">Time</tspan></text>
  <text transform="translate(572.52 321.516)" fill="none" font-family="Roboto-Bold, Roboto" font-size="12" font-weight="700" isolation="isolate" stroke="#fff" stroke-linecap="round" stroke-linejoin="round" stroke-width="2"><tspan x="0" y="0">Time</tspan></text>
  <text transform="translate(572.52 321.516)" fill="#747474" font-family="Roboto-Bold, Roboto" font-size="12" font-weight="700" isolation="isolate"><tspan x="0" y="0">Time</tspan></text>
  <text transform="translate(18.5 47.016)" fill="#000" font-family="Roboto-Bold, Roboto" font-size="12" font-weight="700" isolation="isolate"><tspan x="0" y="0">Weekday</tspan></text>
  <text transform="translate(18.5 47.016)" fill="none" font-family="Roboto-Bold, Roboto" font-size="12" font-weight="700" isolation="isolate" stroke="#fff" stroke-linecap="round" stroke-linejoin="round" stroke-width="2"><tspan x="0" y="0">Weekday</tspan></text>
  <text transform="translate(18.5 47.016)" fill="#747474" font-family="Roboto-Bold, Roboto" font-size="12" font-weight="700" isolation="isolate"><tspan x="0" y="0">Weekday</tspan></text>
  <circle cx="7" cy="12.719" r="7" fill="#0081a7" stroke-width="0"/>
  <circle cx="91.75" cy="12.719" r="7" fill="#00afb9" stroke-width="0"/>
  <circle cx="165.156" cy="12.719" r="7" fill="#ffed4b" stroke-width="0"/>
  <circle cx="232.547" cy="12.719" r="7" fill="#f4b54e" stroke-width="0"/>
  <circle cx="290.375" cy="12.719" r="7" fill="#fe8478" stroke-width="0"/>
  <text transform="translate(0 395.016)" fill="#888" font-family="Roboto-Regular, Roboto" font-size="11" isolation="isolate"><tspan x="0" y="0">Created with</tspan></text>
  <text transform="translate(64.362 395.016)" fill="#888" font-family="Roboto-Regular, Roboto" font-size="11" isolation="isolate"><tspan x="0" y="0">Datawrapper</tspan></text>
</svg>